<svg width="25" height="25" viewBox="0 0 25 25" fill="none" xmlns="http://www.w3.org/2000/svg">
<path d="M19.2031 9.1875C19.2031 8.47656 18.6016 7.875 17.8906 7.875H15.4844L15.1289 7C14.9375 6.48047 14.4453 6.125 13.8984 6.125H10.4805C9.93359 6.125 9.44141 6.48047 9.25 7L8.92188 7.875H6.51562C5.77734 7.875 5.20312 8.47656 5.20312 9.1875V17.0625C5.20312 17.8008 5.77734 18.375 6.51562 18.375H17.8906C18.6016 18.375 19.2031 17.8008 19.2031 17.0625V9.1875ZM15.4844 13.125C15.4844 14.957 14.0078 16.4062 12.2031 16.4062C10.3711 16.4062 8.92188 14.957 8.92188 13.125C8.92188 11.3203 10.3711 9.84375 12.2031 9.84375C14.0078 9.84375 15.4844 11.3203 15.4844 13.125ZM14.6094 13.125C14.6094 11.8125 13.5156 10.7188 12.2031 10.7188C10.8633 10.7188 9.79688 11.8125 9.79688 13.125C9.79688 14.4648 10.8633 15.5312 12.2031 15.5312C13.5156 15.5312 14.6094 14.4648 14.6094 13.125Z" fill="#9F6634"/>
</svg>
