<svg width="110" height="110" viewBox="0 0 110 110" fill="none" xmlns="http://www.w3.org/2000/svg">
<circle cx="53.6032" cy="53.6032" r="53.6032" fill="#ECECEC"/>
<path d="M50.8339 80C54.6068 80 57.763 77.3104 58.488 73.75H43.1797C43.9047 77.3104 47.0609 80 50.8339 80Z" fill="#9F6634"/>
<path d="M65.9375 57.0834H56.5625C55.9812 57.0834 55.4479 56.7604 55.1792 56.2459C54.9083 55.7313 54.9479 55.1104 55.2792 54.6334L62.9542 43.5417H56.5625C55.7 43.5417 55 42.8417 55 41.9792C55 41.1167 55.7 40.4167 56.5625 40.4167H65.9375C66.5187 40.4167 67.0521 40.7396 67.3208 41.2542C67.5917 41.7688 67.5521 42.3896 67.2208 42.8667L59.5458 53.9584H65.9375C66.8 53.9584 67.5 54.6584 67.5 55.5209C67.5 56.3834 66.8 57.0834 65.9375 57.0834Z" fill="#9F6634"/>
<path d="M78.435 42.5H73.2267C72.6413 42.5 72.1058 42.1729 71.8371 41.6521C71.5683 41.1333 71.6163 40.5063 71.9558 40.0313L75.3996 35.2083H73.2267C72.3642 35.2083 71.6642 34.5083 71.6642 33.6458C71.6642 32.7833 72.3642 32.0833 73.2267 32.0833H78.435C79.0204 32.0833 79.5558 32.4104 79.8246 32.9313C80.0933 33.45 80.0454 34.0771 79.7058 34.5521L76.2621 39.375H78.435C79.2975 39.375 79.9975 40.075 79.9975 40.9375C79.9975 41.8 79.2975 42.5 78.435 42.5Z" fill="#9F6634"/>
<path d="M70.3729 65.2354C68.7125 63.8313 67.4396 62.0813 66.5938 60.1417C66.3771 60.1729 66.1625 60.2083 65.9375 60.2083H56.5625C54.8104 60.2083 53.2188 59.2438 52.4083 57.6896C51.5979 56.15 51.7125 54.2896 52.7125 52.8521L56.9917 46.6667H56.5625C53.9792 46.6667 51.875 44.5625 51.875 41.9792C51.875 39.3958 53.9792 37.2917 56.5625 37.2917H59.8146C57.8542 35.7563 55.4938 34.7042 52.9167 34.3333V32.0833C52.9167 30.9313 51.9833 30 50.8333 30C49.6833 30 48.75 30.9313 48.75 32.0833V34.3333C41.6938 35.35 36.25 41.4188 36.25 48.75V54.5583C36.25 58.6813 34.4438 62.5729 31.275 65.2521C30.4646 65.9458 30 66.9542 30 68.0208C30 70.0313 31.6354 71.6667 33.6458 71.6667H68.0208C70.0313 71.6667 71.6667 70.0313 71.6667 68.0208C71.6667 66.9542 71.2021 65.9458 70.3729 65.2354Z" fill="#9F6634"/>
</svg>
