<svg width="43" height="21" viewBox="0 0 43 21" fill="none" xmlns="http://www.w3.org/2000/svg">
<g clip-path="url(#clip0_2748_18946)">
<path d="M40.2209 16.9995L40.2209 14.1256L41.042 14.1256C41.5699 14.1256 42.0391 13.715 42.0391 13.1285L42.0391 6.91149C42.0391 6.38363 41.5699 5.91442 41.042 5.91442L40.2209 5.91442L40.2209 3.09917C40.2209 1.39829 38.8133 0.0493163 37.171 0.0493162L3.44668 0.0493147C1.7458 0.0493146 0.396831 1.39829 0.396831 3.09917L0.396831 16.9995C0.396831 18.7003 1.7458 20.0493 3.44668 20.0493L37.171 20.0493C38.8133 20.0493 40.2209 18.6417 40.2209 16.9995ZM3.44668 18.3484C2.68422 18.3484 2.03906 17.7033 2.03906 16.9408L2.03906 3.09917C2.03906 2.3367 2.68422 1.69154 3.44668 1.69154L37.171 1.69155C37.9335 1.69155 38.52 2.33671 38.52 3.09917L38.52 16.9995C38.52 17.7619 37.8748 18.4071 37.1124 18.4071L3.44668 18.4071L3.44668 18.3484Z" fill="#33243D"/>
<path d="M23.1523 17.3512L23.1523 2.74707L17.0526 2.74707L17.0526 17.3512L23.1523 17.3512Z" fill="#12CE47"/>
<path d="M8.90234 17.3512L8.90234 2.74707L3.03724 2.74707L3.03724 17.3512L8.90234 17.3512Z" fill="#12CE47"/>
<path d="M15.9375 17.3512L15.9375 2.74707L9.83779 2.74707L9.83779 17.3512L15.9375 17.3512Z" fill="#12CE47"/>
</g>
<defs>
<clipPath id="clip0_2748_18946">
<rect width="20" height="41.6422" fill="white" transform="translate(42.0391 0.0493164) rotate(90)"/>
</clipPath>
</defs>
</svg>
