<svg width="38" height="38" viewBox="0 0 38 38" fill="none" xmlns="http://www.w3.org/2000/svg">
<rect x="0.5" y="0.5" width="37" height="37" rx="18.5" fill="#FFF9F1"/>
<path d="M27.3434 25.0471V17.5674C27.3434 13.7691 24.7649 10.5624 21.2665 9.604V9.07227C21.2665 7.92053 20.3293 6.9834 19.1774 6.9834H19.1518C18.0001 6.9834 17.0629 7.92053 17.0629 9.07227V9.56299C13.4861 10.4683 10.8315 13.7136 10.8315 17.5676V25.1335C9.91174 25.6871 9.33203 26.6874 9.33203 27.7589C9.33203 27.8832 9.38147 28.0024 9.46936 28.0903C9.55725 28.1782 9.67645 28.2277 9.80078 28.2277H16.6824V28.501C16.6824 29.8698 17.7959 30.9834 19.1646 30.9834C20.5335 30.9834 21.647 29.8698 21.647 28.501V28.2278H28.5286C28.7874 28.2278 28.9974 28.0178 28.9974 27.7591C28.9974 26.627 28.3444 25.5745 27.3434 25.0471ZM18.0004 9.31158V9.07227C18.0004 8.43744 18.517 7.9209 19.1518 7.9209H19.1774C19.8123 7.9209 20.3288 8.43744 20.3288 9.07227V9.31158H18.0004ZM20.7095 28.501C20.7095 29.3528 20.0164 30.0459 19.1646 30.0459C18.3128 30.0459 17.6199 29.3528 17.6199 28.501V28.2278H20.7095V28.501ZM21.1782 27.2903H10.3237C10.4625 26.6958 10.8599 26.175 11.4171 25.8799H20.1724C20.4313 25.8799 20.6412 25.67 20.6412 25.4111C20.6412 25.1522 20.4313 24.9424 20.1724 24.9424H11.769V17.5678C11.769 13.5323 15.0521 10.2493 19.0873 10.2491C23.1228 10.2491 26.4059 13.5322 26.4059 17.5674V25.3465C26.4059 25.5386 26.5231 25.7112 26.7016 25.7821C27.3633 26.0452 27.8482 26.6211 28.0053 27.2902H21.1782V27.2903Z" fill="#9F6634"/>
<path d="M21.9766 24.9424C21.8533 24.9424 21.7325 24.9926 21.6451 25.0797C21.558 25.1674 21.5078 25.2883 21.5078 25.4115C21.5078 25.5349 21.558 25.6552 21.6451 25.7429C21.7325 25.8301 21.8533 25.8799 21.9766 25.8799C22.1 25.8799 22.2208 25.8301 22.308 25.7429C22.3951 25.6558 22.4453 25.5349 22.4453 25.4115C22.4453 25.2877 22.3951 25.1674 22.308 25.0797C22.2208 24.9926 22.1 24.9424 21.9766 24.9424Z" fill="#9F6634"/>
<rect x="0.5" y="0.5" width="37" height="37" rx="18.5" stroke="#9F6634"/>
</svg>
