<svg width="42" height="21" viewBox="0 0 42 21" fill="none" xmlns="http://www.w3.org/2000/svg">
<g clip-path="url(#clip0_2769_188110)">
<path d="M40.0217 16.9995L40.0217 14.1256L40.8429 14.1256C41.3707 14.1256 41.8399 13.715 41.8399 13.1285L41.8399 6.91149C41.8399 6.38363 41.3707 5.91442 40.8429 5.91442L40.0217 5.91442L40.0217 3.09917C40.0217 1.39829 38.6141 0.0493153 36.9719 0.0493152L3.24755 0.0493138C1.54667 0.0493137 0.197696 1.39829 0.197696 3.09917L0.197696 16.9995C0.197696 18.7003 1.54667 20.0493 3.24755 20.0493L36.9719 20.0493C38.6141 20.0493 40.0217 18.6417 40.0217 16.9995ZM3.24755 18.3484C2.48508 18.3484 1.83993 17.7033 1.83993 16.9408L1.83993 3.09917C1.83993 2.3367 2.48508 1.69154 3.24755 1.69154L36.9719 1.69154C37.7344 1.69154 38.3209 2.33671 38.3209 3.09917L38.3209 16.9995C38.3209 17.7619 37.6757 18.4071 36.9132 18.4071L3.24755 18.4071L3.24755 18.3484Z" fill="#33243D"/>
<path d="M8.7018 17.3512L8.70181 2.74711L2.8367 2.74711L2.8367 17.3512L8.7018 17.3512Z" fill="#06DBDB"/>
</g>
<defs>
<clipPath id="clip0_2769_188110">
<rect width="20" height="41.6422" fill="white" transform="translate(41.8398 0.0493164) rotate(90)"/>
</clipPath>
</defs>
</svg>
