<svg width="42" height="21" viewBox="0 0 42 21" fill="none" xmlns="http://www.w3.org/2000/svg">
<g clip-path="url(#clip0_2769_188134)">
<path d="M39.8241 16.9995L39.8241 14.1256L40.6452 14.1256C41.1731 14.1256 41.6423 13.715 41.6423 13.1285L41.6423 6.91149C41.6423 6.38363 41.1731 5.91442 40.6452 5.91442L39.8241 5.91442L39.8241 3.09917C39.8241 1.39829 38.4165 0.0493153 36.7743 0.0493152L3.04993 0.0493138C1.34905 0.0493137 7.9692e-05 1.39829 7.96177e-05 3.09917L7.90101e-05 16.9995C7.89358e-05 18.7003 1.34905 20.0493 3.04993 20.0493L36.7743 20.0493C38.4165 20.0493 39.8241 18.6417 39.8241 16.9995ZM3.04993 18.3484C2.28747 18.3484 1.64231 17.7033 1.64231 16.9408L1.64231 3.09917C1.64231 2.3367 2.28747 1.69154 3.04993 1.69154L36.7743 1.69154C37.5367 1.69154 38.1232 2.33671 38.1232 3.09917L38.1232 16.9995C38.1232 17.7619 37.4781 18.4071 36.7156 18.4071L3.04993 18.4071L3.04993 18.3484Z" fill="#33243D"/>
<path d="M22.7036 17.3511L22.7036 2.74703L16.6039 2.74703L16.6039 17.3511L22.7036 17.3511Z" fill="#3716DF"/>
<path d="M29.8033 17.3511L29.8033 2.74703L23.7036 2.74703L23.7036 17.3511L29.8033 17.3511Z" fill="#3716DF"/>
<path d="M8.50419 17.3512L8.50419 2.74711L2.63909 2.74711L2.63909 17.3512L8.50419 17.3512Z" fill="#3716DF"/>
<path d="M15.6039 17.3511L15.6039 2.74703L9.50419 2.74703L9.50419 17.3511L15.6039 17.3511Z" fill="#3716DF"/>
</g>
<defs>
<clipPath id="clip0_2769_188134">
<rect width="20" height="41.6422" fill="white" transform="translate(41.6422 0.0493164) rotate(90)"/>
</clipPath>
</defs>
</svg>
