<svg width="42" height="21" viewBox="0 0 42 21" fill="none" xmlns="http://www.w3.org/2000/svg">
<g clip-path="url(#clip0_2769_188126)">
<path d="M40.0217 17.9011L40.0217 15.0272L40.8429 15.0272C41.3707 15.0272 41.8399 14.6167 41.8399 14.0302L41.8399 7.81317C41.8399 7.28531 41.3707 6.8161 40.8429 6.8161L40.0217 6.8161L40.0217 4.00085C40.0217 2.29997 38.6141 0.951 36.9719 0.951L3.24755 0.950999C1.54667 0.950998 0.197696 2.29997 0.197696 4.00085L0.197696 17.9011C0.197696 19.602 1.54667 20.951 3.24755 20.951L36.9719 20.951C38.6141 20.951 40.0217 19.5434 40.0217 17.9011ZM3.24755 19.2501C2.48508 19.2501 1.83993 18.605 1.83993 17.8425L1.83993 4.00085C1.83993 3.23839 2.48508 2.59323 3.24755 2.59323L36.9719 2.59323C37.7344 2.59323 38.3209 3.23839 38.3209 4.00085L38.3209 17.9011C38.3209 18.6636 37.6757 19.3088 36.9132 19.3088L3.24755 19.3088L3.24755 19.2501Z" fill="#33243D"/>
<path d="M22.9542 18.2528L22.9542 3.64872L16.8545 3.64872L16.8545 18.2528L22.9542 18.2528Z" fill="#12CE47"/>
<path d="M8.7018 18.2529L8.70181 3.6488L2.8367 3.6488L2.8367 18.2529L8.7018 18.2529Z" fill="#12CE47"/>
<path d="M15.7402 18.2528L15.7402 3.64872L9.6405 3.64872L9.6405 18.2528L15.7402 18.2528Z" fill="#12CE47"/>
</g>
<defs>
<clipPath id="clip0_2769_188126">
<rect width="20" height="41.6422" fill="white" transform="translate(41.8398 0.951) rotate(90)"/>
</clipPath>
</defs>
</svg>
