<svg width="42" height="20" viewBox="0 0 42 20" fill="none" xmlns="http://www.w3.org/2000/svg">
<g clip-path="url(#clip0_2769_188142)">
<path d="M39.8241 16.9501L39.8241 14.0762L40.6452 14.0762C41.1731 14.0762 41.6423 13.6657 41.6423 13.0792L41.6423 6.86217C41.6423 6.33431 41.1731 5.8651 40.6452 5.8651L39.8241 5.8651L39.8241 3.04986C39.8241 1.34898 38.4165 1.76634e-06 36.7743 1.69456e-06L3.04993 2.20422e-07C1.34905 1.46074e-07 7.9692e-05 1.34897 7.96177e-05 3.04985L7.90101e-05 16.9501C7.89358e-05 18.651 1.34905 20 3.04993 20L36.7743 20C38.4165 20 39.8241 18.5924 39.8241 16.9501ZM3.04993 18.2991C2.28747 18.2991 1.64231 17.654 1.64231 16.8915L1.64231 3.04985C1.64231 2.28739 2.28747 1.64223 3.04993 1.64223L36.7743 1.64223C37.5367 1.64223 38.1232 2.28739 38.1232 3.04986L38.1232 16.9501C38.1232 17.7126 37.4781 18.3578 36.7156 18.3578L3.04993 18.3578L3.04993 18.2991Z" fill="#33243D"/>
<path d="M22.7565 17.3018L22.7565 2.69772L16.6568 2.69772L16.6568 17.3018L22.7565 17.3018Z" fill="#F57E1B"/>
<path d="M37.0092 17.3018L37.0092 2.69772L30.9095 2.69772L30.9095 17.3018L37.0092 17.3018Z" fill="#F57E1B"/>
<path d="M8.50419 17.3019L8.50419 2.6978L2.63909 2.6978L2.63909 17.3019L8.50419 17.3019Z" fill="#F57E1B"/>
<path d="M15.5426 17.3018L15.5426 2.69772L9.44288 2.69772L9.44288 17.3018L15.5426 17.3018Z" fill="#F57E1B"/>
<path d="M29.7953 17.3018L29.7953 2.69772L23.6956 2.69772L23.6956 17.3018L29.7953 17.3018Z" fill="#F57E1B"/>
</g>
<defs>
<clipPath id="clip0_2769_188142">
<rect width="20" height="41.6422" fill="white" transform="translate(41.6422) rotate(90)"/>
</clipPath>
</defs>
</svg>
