<svg width="42" height="20" viewBox="0 0 42 20" fill="none" xmlns="http://www.w3.org/2000/svg">
<g clip-path="url(#clip0_2769_188118)">
<path d="M40.0217 16.9501L40.0217 14.0762L40.8429 14.0762C41.3707 14.0762 41.8399 13.6657 41.8399 13.0792L41.8399 6.86217C41.8399 6.33431 41.3707 5.8651 40.8429 5.8651L40.0217 5.8651L40.0217 3.04986C40.0217 1.34898 38.6141 1.76634e-06 36.9719 1.69456e-06L3.24755 2.20422e-07C1.54667 1.46074e-07 0.197696 1.34897 0.197696 3.04985L0.197696 16.9501C0.197696 18.651 1.54667 20 3.24755 20L36.9719 20C38.6141 20 40.0217 18.5924 40.0217 16.9501ZM3.24755 18.2991C2.48508 18.2991 1.83993 17.654 1.83993 16.8915L1.83993 3.04985C1.83993 2.28739 2.48508 1.64223 3.24755 1.64223L36.9719 1.64223C37.7344 1.64223 38.3209 2.28739 38.3209 3.04986L38.3209 16.9501C38.3209 17.7126 37.6757 18.3578 36.9132 18.3578L3.24755 18.3578L3.24755 18.2991Z" fill="#33243D"/>
<path d="M8.7018 17.3019L8.70181 2.6978L2.8367 2.6978L2.8367 17.3019L8.7018 17.3019Z" fill="#CECECE"/>
<path d="M15.7402 17.3018L15.7402 2.69772L9.6405 2.69772L9.6405 17.3018L15.7402 17.3018Z" fill="#CECECE"/>
</g>
<defs>
<clipPath id="clip0_2769_188118">
<rect width="20" height="41.6422" fill="white" transform="translate(41.8398) rotate(90)"/>
</clipPath>
</defs>
</svg>
